<mxfile host="app.diagrams.net" modified="2023-12-23T04:11:09.492Z" agent="Mozilla/5.0 (Windows NT 10.0; Win64; x64) AppleWebKit/537.36 (KHTML, like Gecko) Chrome/120.0.0.0 Safari/537.36 Edg/120.0.0.0" etag="vvs5rDK2UqOBbzVzuJrW" version="22.1.11" type="github">
  <diagram name="PÃ¡gina-1" id="DoMTYIOWFA96HwlCENNE">
    <mxGraphModel dx="2642" dy="577" grid="0" gridSize="10" guides="1" tooltips="1" connect="1" arrows="1" fold="1" page="1" pageScale="1" pageWidth="1600" pageHeight="1200" background="#FFFFFF" math="0" shadow="0">
      <root>
        <mxCell id="0" />
        <mxCell id="1" parent="0" />
        <mxCell id="wq_cmzW5N2Y1-mYz72yh-4" value="" style="group;fontFamily=Comic Sans MS;" parent="1" vertex="1" connectable="0">
          <mxGeometry x="350" y="650" width="448" height="390" as="geometry" />
        </mxCell>
        <mxCell id="wq_cmzW5N2Y1-mYz72yh-6" value="Presente progresivo" style="text;strokeColor=none;fillColor=none;html=1;fontSize=24;fontStyle=1;verticalAlign=middle;align=center;fontFamily=Comic Sans MS;" parent="wq_cmzW5N2Y1-mYz72yh-4" vertex="1">
          <mxGeometry x="32.25" width="365.5" height="60" as="geometry" />
        </mxCell>
        <mxCell id="dCN5y319V1dZhfIS2Bhl-4" value="" style="group" parent="wq_cmzW5N2Y1-mYz72yh-4" vertex="1" connectable="0">
          <mxGeometry y="60" width="448" height="330" as="geometry" />
        </mxCell>
        <mxCell id="wq_cmzW5N2Y1-mYz72yh-5" value="" style="rounded=1;whiteSpace=wrap;html=1;fillColor=#f5f5f5;fontColor=#333333;strokeColor=#666666;glass=0;shadow=0;arcSize=5;fontFamily=Comic Sans MS;" parent="dCN5y319V1dZhfIS2Bhl-4" vertex="1">
          <mxGeometry width="448" height="330" as="geometry" />
        </mxCell>
        <mxCell id="wq_cmzW5N2Y1-mYz72yh-7" value="&lt;span style=&quot;background-color: initial;&quot;&gt;am I&amp;nbsp;&lt;font color=&quot;#ff0000&quot;&gt;not&lt;/font&gt; being ?&lt;br&gt;&lt;/span&gt;&lt;br&gt;&lt;span style=&quot;background-color: initial;&quot;&gt;are You&amp;nbsp;&lt;font color=&quot;#ff0000&quot;&gt;not&lt;/font&gt; being ?&lt;br&gt;&lt;/span&gt;&lt;br&gt;&lt;span style=&quot;background-color: initial;&quot;&gt;is He/She/It&amp;nbsp;&lt;font color=&quot;#ff0000&quot;&gt;not&lt;/font&gt; being ?&lt;/span&gt;&lt;br&gt;&lt;span style=&quot;background-color: initial;&quot;&gt;&lt;br&gt;are We&amp;nbsp;&lt;font color=&quot;#ff0000&quot;&gt;not&lt;/font&gt; being ?&lt;br&gt;&lt;/span&gt;&lt;br&gt;&lt;span style=&quot;background-color: initial;&quot;&gt;are You&amp;nbsp;&lt;font color=&quot;#ff0000&quot;&gt;not&lt;/font&gt; being ?&lt;br&gt;&lt;/span&gt;&lt;br&gt;&lt;span style=&quot;background-color: initial;&quot;&gt;are They&amp;nbsp;&lt;font color=&quot;#ff0000&quot;&gt;not&lt;/font&gt; being ?&lt;/span&gt;" style="text;strokeColor=none;fillColor=none;html=1;verticalAlign=middle;overflow=hidden;spacingTop=0;whiteSpace=wrap;horizontal=1;spacing=0;fontSize=16;fontFamily=Comic Sans MS;spacingLeft=20;fontColor=#66B2FF;" parent="dCN5y319V1dZhfIS2Bhl-4" vertex="1">
          <mxGeometry y="70" width="215" height="260" as="geometry" />
        </mxCell>
        <mxCell id="wq_cmzW5N2Y1-mYz72yh-8" value="Yo no estoy siendo, Tu no estas siendo, Ella no esta siendo" style="text;html=1;strokeColor=none;fillColor=none;align=center;verticalAlign=middle;whiteSpace=wrap;rounded=0;fontFamily=Comic Sans MS;" parent="dCN5y319V1dZhfIS2Bhl-4" vertex="1">
          <mxGeometry x="43.7" width="356.3" height="60" as="geometry" />
        </mxCell>
        <mxCell id="dCN5y319V1dZhfIS2Bhl-3" value="&lt;span style=&quot;background-color: initial;&quot;&gt;am I&amp;nbsp;&lt;font color=&quot;#ff0000&quot;&gt;not&lt;/font&gt; being ?&lt;br&gt;&lt;/span&gt;&lt;br&gt;are&lt;font style=&quot;border-color: var(--border-color);&quot; color=&quot;#ff0000&quot;&gt;n&#39;t&amp;nbsp;&lt;/font&gt;&lt;span style=&quot;background-color: initial;&quot;&gt;You&amp;nbsp;being ?&lt;br&gt;&lt;/span&gt;&lt;br&gt;is&lt;font style=&quot;border-color: var(--border-color);&quot; color=&quot;#ff0000&quot;&gt;n&#39;t&amp;nbsp;&lt;/font&gt;&lt;span style=&quot;background-color: initial;&quot;&gt;He/She/It&amp;nbsp;being ?&lt;/span&gt;&lt;br&gt;&lt;br&gt;are&lt;font style=&quot;border-color: var(--border-color);&quot; color=&quot;#ff0000&quot;&gt;n&#39;t&amp;nbsp;&lt;/font&gt;&lt;span style=&quot;background-color: initial;&quot;&gt;We&amp;nbsp;being ?&lt;br&gt;&lt;/span&gt;&lt;br&gt;are&lt;font style=&quot;border-color: var(--border-color);&quot; color=&quot;#ff0000&quot;&gt;n&#39;t&amp;nbsp;&lt;/font&gt;&lt;span style=&quot;background-color: initial;&quot;&gt;You&amp;nbsp;being ?&lt;br&gt;&lt;/span&gt;&lt;br&gt;are&lt;font style=&quot;border-color: var(--border-color);&quot; color=&quot;#ff0000&quot;&gt;n&#39;t&amp;nbsp;&lt;/font&gt;&lt;span style=&quot;background-color: initial;&quot;&gt;They&amp;nbsp;being ?&lt;/span&gt;" style="text;strokeColor=none;fillColor=none;html=1;verticalAlign=middle;overflow=hidden;spacingTop=0;whiteSpace=wrap;horizontal=1;spacing=0;fontSize=16;fontFamily=Comic Sans MS;spacingLeft=20;fontColor=#66B2FF;" parent="dCN5y319V1dZhfIS2Bhl-4" vertex="1">
          <mxGeometry x="235" y="70" width="212" height="260" as="geometry" />
        </mxCell>
        <mxCell id="dCN5y319V1dZhfIS2Bhl-2" value="" style="group" parent="1" vertex="1" connectable="0">
          <mxGeometry x="400" y="170" width="389" height="390" as="geometry" />
        </mxCell>
        <mxCell id="LE9yWc8VUJ7Y_HGT6EMH-2" value="" style="rounded=1;whiteSpace=wrap;html=1;fillColor=#f5f5f5;fontColor=#333333;strokeColor=#666666;glass=0;shadow=0;arcSize=5;fontFamily=Comic Sans MS;container=0;" parent="dCN5y319V1dZhfIS2Bhl-2" vertex="1">
          <mxGeometry y="60" width="389" height="330" as="geometry" />
        </mxCell>
        <mxCell id="wq_cmzW5N2Y1-mYz72yh-1" value="&lt;span style=&quot;background-color: initial;&quot;&gt;am I&amp;nbsp;&lt;font color=&quot;#ff0000&quot;&gt;not &lt;/font&gt;?&lt;br&gt;&lt;/span&gt;&lt;br&gt;are You&amp;nbsp;&lt;span style=&quot;color: rgb(255, 0, 0);&quot;&gt;not &lt;/span&gt;?&lt;span style=&quot;background-color: initial;&quot;&gt;&lt;br&gt;&lt;/span&gt;&lt;br&gt;&lt;span style=&quot;background-color: initial;&quot;&gt;is He/She/It&amp;nbsp;&lt;/span&gt;&lt;font color=&quot;#ff0000&quot;&gt;not &lt;/font&gt;?&lt;br&gt;&lt;span style=&quot;background-color: initial;&quot;&gt;&lt;br&gt;are We&amp;nbsp;&lt;font color=&quot;#ff0000&quot;&gt;not &lt;/font&gt;?&lt;br&gt;&lt;/span&gt;&lt;br&gt;are You&amp;nbsp;&lt;span style=&quot;color: rgb(255, 0, 0);&quot;&gt;not &lt;/span&gt;?&lt;span style=&quot;background-color: initial;&quot;&gt;&lt;br&gt;&lt;/span&gt;&lt;br&gt;&lt;span style=&quot;background-color: initial;&quot;&gt;are They&amp;nbsp;&lt;/span&gt;&lt;font color=&quot;#ff0000&quot;&gt;not &lt;/font&gt;?" style="text;strokeColor=none;fillColor=none;html=1;verticalAlign=middle;overflow=hidden;spacingTop=0;whiteSpace=wrap;horizontal=1;spacing=0;fontSize=16;fontFamily=Comic Sans MS;spacingLeft=20;fontColor=#66B2FF;container=0;" parent="dCN5y319V1dZhfIS2Bhl-2" vertex="1">
          <mxGeometry y="150" width="179" height="240" as="geometry" />
        </mxCell>
        <mxCell id="LE9yWc8VUJ7Y_HGT6EMH-3" value="Presente simple" style="text;strokeColor=none;fillColor=none;html=1;fontSize=24;fontStyle=1;verticalAlign=middle;align=center;fontFamily=Comic Sans MS;container=0;" parent="dCN5y319V1dZhfIS2Bhl-2" vertex="1">
          <mxGeometry x="55" width="230" height="60" as="geometry" />
        </mxCell>
        <mxCell id="wq_cmzW5N2Y1-mYz72yh-2" value="Yo no soy, Tu no eres, Ella no es&lt;br&gt;&lt;br&gt;Yo no estoy, Tu no estas, Ella no esta" style="text;html=1;strokeColor=none;fillColor=none;align=center;verticalAlign=middle;whiteSpace=wrap;rounded=0;fontFamily=Comic Sans MS;container=0;" parent="dCN5y319V1dZhfIS2Bhl-2" vertex="1">
          <mxGeometry x="35" y="70" width="270" height="60" as="geometry" />
        </mxCell>
        <mxCell id="wq_cmzW5N2Y1-mYz72yh-39" value="&lt;span style=&quot;background-color: initial;&quot;&gt;am I&amp;nbsp;&lt;font color=&quot;#ff0000&quot;&gt;not &lt;/font&gt;?&lt;br&gt;&lt;/span&gt;&lt;br&gt;are&lt;font style=&quot;border-color: var(--border-color);&quot; color=&quot;#ff0000&quot;&gt;n&#39;t&amp;nbsp;&lt;/font&gt;&lt;span style=&quot;background-color: initial;&quot;&gt;You ?&lt;br&gt;&lt;/span&gt;&lt;br&gt;is&lt;font style=&quot;border-color: var(--border-color);&quot; color=&quot;#ff0000&quot;&gt;n&#39;t&amp;nbsp;&lt;/font&gt;&lt;span style=&quot;background-color: initial;&quot;&gt;He/She/It ?&lt;/span&gt;&lt;br&gt;&lt;br&gt;are&lt;font style=&quot;border-color: var(--border-color);&quot; color=&quot;#ff0000&quot;&gt;n&#39;t&amp;nbsp;&lt;/font&gt;We ?&lt;span style=&quot;background-color: initial;&quot;&gt;&lt;br&gt;&lt;/span&gt;&lt;br&gt;are&lt;font style=&quot;border-color: var(--border-color);&quot; color=&quot;#ff0000&quot;&gt;n&#39;t&amp;nbsp;&lt;/font&gt;You ?&lt;span style=&quot;background-color: initial;&quot;&gt;&lt;br&gt;&lt;/span&gt;&lt;br&gt;are&lt;font style=&quot;border-color: var(--border-color);&quot; color=&quot;#ff0000&quot;&gt;n&#39;t&amp;nbsp;&lt;/font&gt;&lt;span style=&quot;background-color: initial;&quot;&gt;They ?&lt;/span&gt;" style="text;strokeColor=none;fillColor=none;html=1;verticalAlign=middle;overflow=hidden;spacingTop=0;whiteSpace=wrap;horizontal=1;spacing=0;fontSize=16;fontFamily=Comic Sans MS;spacingLeft=20;fontColor=#66B2FF;container=0;" parent="dCN5y319V1dZhfIS2Bhl-2" vertex="1">
          <mxGeometry x="210" y="150" width="176" height="240" as="geometry" />
        </mxCell>
        <mxCell id="dCN5y319V1dZhfIS2Bhl-15" value="" style="group" parent="1" vertex="1" connectable="0">
          <mxGeometry x="-440" y="170" width="370" height="390" as="geometry" />
        </mxCell>
        <mxCell id="wq_cmzW5N2Y1-mYz72yh-22" value="" style="rounded=1;whiteSpace=wrap;html=1;fillColor=#f5f5f5;fontColor=#333333;strokeColor=#666666;glass=0;shadow=0;arcSize=5;fontFamily=Comic Sans MS;" parent="dCN5y319V1dZhfIS2Bhl-15" vertex="1">
          <mxGeometry y="60" width="370" height="330" as="geometry" />
        </mxCell>
        <mxCell id="wq_cmzW5N2Y1-mYz72yh-23" value="Pasado simple" style="text;strokeColor=none;fillColor=none;html=1;fontSize=24;fontStyle=1;verticalAlign=middle;align=center;fontFamily=Comic Sans MS;" parent="dCN5y319V1dZhfIS2Bhl-15" vertex="1">
          <mxGeometry x="70" width="230" height="60" as="geometry" />
        </mxCell>
        <mxCell id="wq_cmzW5N2Y1-mYz72yh-24" value="&lt;span style=&quot;background-color: initial;&quot;&gt;was I&amp;nbsp;&lt;font color=&quot;#ff0000&quot;&gt;not &lt;/font&gt;?&lt;br&gt;&lt;/span&gt;&lt;br&gt;&lt;span style=&quot;background-color: initial;&quot;&gt;were You&amp;nbsp;&lt;font color=&quot;#ff0000&quot;&gt;not &lt;/font&gt;?&lt;br&gt;&lt;/span&gt;&lt;br&gt;&lt;span style=&quot;background-color: initial;&quot;&gt;was He/She/It&amp;nbsp;&lt;font color=&quot;#ff0000&quot;&gt;not &lt;/font&gt;?&lt;/span&gt;&lt;br&gt;&lt;span style=&quot;background-color: initial;&quot;&gt;&lt;br&gt;were We&amp;nbsp;&lt;font color=&quot;#ff0000&quot;&gt;not &lt;/font&gt;?&lt;br&gt;&lt;/span&gt;&lt;br&gt;&lt;span style=&quot;background-color: initial;&quot;&gt;were You&amp;nbsp;&lt;font color=&quot;#ff0000&quot;&gt;not &lt;/font&gt;?&lt;br&gt;&lt;/span&gt;&lt;br&gt;&lt;span style=&quot;background-color: initial;&quot;&gt;were They&amp;nbsp;&lt;font color=&quot;#ff0000&quot;&gt;not &lt;/font&gt;?&lt;/span&gt;" style="text;strokeColor=none;fillColor=none;html=1;verticalAlign=middle;overflow=hidden;spacingTop=0;whiteSpace=wrap;horizontal=1;spacing=0;fontSize=16;fontFamily=Comic Sans MS;spacingLeft=20;fontColor=#66B2FF;" parent="dCN5y319V1dZhfIS2Bhl-15" vertex="1">
          <mxGeometry y="150" width="190" height="240" as="geometry" />
        </mxCell>
        <mxCell id="wq_cmzW5N2Y1-mYz72yh-25" value="Yo no era, Tu no eras, Ella no era&lt;br&gt;&lt;br&gt;Yo no estaba, Tu no estabas, Ella no estaba" style="text;html=1;strokeColor=none;fillColor=none;align=center;verticalAlign=middle;whiteSpace=wrap;rounded=0;fontFamily=Comic Sans MS;" parent="dCN5y319V1dZhfIS2Bhl-15" vertex="1">
          <mxGeometry x="55" y="70" width="260" height="60" as="geometry" />
        </mxCell>
        <mxCell id="dCN5y319V1dZhfIS2Bhl-14" value="was&lt;font style=&quot;border-color: var(--border-color);&quot; color=&quot;#ff0000&quot;&gt;n&#39;t&amp;nbsp;&lt;/font&gt;&lt;span style=&quot;background-color: initial;&quot;&gt;I&lt;font color=&quot;#ff0000&quot;&gt;&amp;nbsp;&lt;/font&gt;?&lt;br&gt;&lt;/span&gt;&lt;br&gt;were&lt;font style=&quot;border-color: var(--border-color);&quot; color=&quot;#ff0000&quot;&gt;n&#39;t&amp;nbsp;&lt;/font&gt;&lt;span style=&quot;background-color: initial;&quot;&gt;You&lt;font color=&quot;#ff0000&quot;&gt;&amp;nbsp;&lt;/font&gt;?&lt;br&gt;&lt;/span&gt;&lt;br&gt;was&lt;font style=&quot;border-color: var(--border-color);&quot; color=&quot;#ff0000&quot;&gt;n&#39;t&amp;nbsp;&lt;/font&gt;&lt;span style=&quot;background-color: initial;&quot;&gt;He/She/It ?&lt;/span&gt;&lt;br&gt;&lt;br&gt;were&lt;font style=&quot;border-color: var(--border-color);&quot; color=&quot;#ff0000&quot;&gt;n&#39;t&amp;nbsp;&lt;/font&gt;&lt;span style=&quot;background-color: initial;&quot;&gt;We ?&lt;br&gt;&lt;/span&gt;&lt;br&gt;were&lt;font style=&quot;border-color: var(--border-color);&quot; color=&quot;#ff0000&quot;&gt;n&#39;t&amp;nbsp;&lt;/font&gt;&lt;span style=&quot;background-color: initial;&quot;&gt;You ?&lt;br&gt;&lt;/span&gt;&lt;br&gt;were&lt;font style=&quot;border-color: var(--border-color);&quot; color=&quot;#ff0000&quot;&gt;n&#39;t&amp;nbsp;&lt;/font&gt;&lt;span style=&quot;background-color: initial;&quot;&gt;They ?&lt;/span&gt;" style="text;strokeColor=none;fillColor=none;html=1;verticalAlign=middle;overflow=hidden;spacingTop=0;whiteSpace=wrap;horizontal=1;spacing=0;fontSize=16;fontFamily=Comic Sans MS;spacingLeft=20;fontColor=#66B2FF;" parent="dCN5y319V1dZhfIS2Bhl-15" vertex="1">
          <mxGeometry x="190" y="150" width="180" height="240" as="geometry" />
        </mxCell>
        <mxCell id="dH2ktReE65H0-K7HurxZ-3" value="" style="group" parent="1" vertex="1" connectable="0">
          <mxGeometry x="-482" y="1214" width="482" height="390" as="geometry" />
        </mxCell>
        <mxCell id="wq_cmzW5N2Y1-mYz72yh-33" value="" style="rounded=1;whiteSpace=wrap;html=1;fillColor=#f5f5f5;fontColor=#333333;strokeColor=#666666;glass=0;shadow=0;arcSize=5;fontFamily=Comic Sans MS;" parent="dH2ktReE65H0-K7HurxZ-3" vertex="1">
          <mxGeometry y="60" width="482" height="330" as="geometry" />
        </mxCell>
        <mxCell id="wq_cmzW5N2Y1-mYz72yh-34" value="Pasado perfecto" style="text;strokeColor=none;fillColor=none;html=1;fontSize=24;fontStyle=1;verticalAlign=middle;align=center;fontFamily=Comic Sans MS;" parent="dH2ktReE65H0-K7HurxZ-3" vertex="1">
          <mxGeometry width="230" height="60" as="geometry" />
        </mxCell>
        <mxCell id="wq_cmzW5N2Y1-mYz72yh-35" value="&lt;span style=&quot;background-color: initial;&quot;&gt;had I&amp;nbsp;&lt;font color=&quot;#ff0000&quot;&gt;not&lt;/font&gt; been ?&lt;br&gt;&lt;/span&gt;&lt;br&gt;&lt;span style=&quot;background-color: initial;&quot;&gt;had You&amp;nbsp;&lt;font color=&quot;#ff0000&quot;&gt;not&lt;/font&gt; been ?&lt;br&gt;&lt;/span&gt;&lt;br&gt;&lt;span style=&quot;background-color: initial;&quot;&gt;had He/She/It&amp;nbsp;&lt;font color=&quot;#ff0000&quot;&gt;not&lt;/font&gt; been ?&lt;/span&gt;&lt;br&gt;&lt;span style=&quot;background-color: initial;&quot;&gt;&lt;br&gt;had We&amp;nbsp;&lt;font color=&quot;#ff0000&quot;&gt;not&lt;/font&gt; been ?&lt;br&gt;&lt;/span&gt;&lt;br&gt;&lt;span style=&quot;background-color: initial;&quot;&gt;had You&amp;nbsp;&lt;font color=&quot;#ff0000&quot;&gt;not&lt;/font&gt; been ?&lt;br&gt;&lt;/span&gt;&lt;br&gt;&lt;span style=&quot;background-color: initial;&quot;&gt;had They&amp;nbsp;&lt;font color=&quot;#ff0000&quot;&gt;not&lt;/font&gt; been ?&lt;/span&gt;" style="text;strokeColor=none;fillColor=none;html=1;verticalAlign=middle;overflow=hidden;spacingTop=0;whiteSpace=wrap;horizontal=1;spacing=0;fontSize=16;fontFamily=Comic Sans MS;spacingLeft=20;fontColor=#66B2FF;" parent="dH2ktReE65H0-K7HurxZ-3" vertex="1">
          <mxGeometry y="150" width="230" height="240" as="geometry" />
        </mxCell>
        <mxCell id="wq_cmzW5N2Y1-mYz72yh-36" value="Yo no habÃ­a sido, Tu no habÃ­as sido, Ella no habÃ­a sido&lt;br&gt;&lt;br&gt;Yo no habia estado, Tu no habias estado, Ella no habia estado" style="text;html=1;strokeColor=none;fillColor=none;align=center;verticalAlign=middle;whiteSpace=wrap;rounded=0;fontFamily=Comic Sans MS;spacingTop=0;" parent="dH2ktReE65H0-K7HurxZ-3" vertex="1">
          <mxGeometry x="20" y="60" width="400" height="80" as="geometry" />
        </mxCell>
        <mxCell id="dH2ktReE65H0-K7HurxZ-2" value="had&lt;font style=&quot;border-color: var(--border-color);&quot; color=&quot;#ff0000&quot;&gt;n&#39;t&amp;nbsp;&lt;/font&gt;&lt;span style=&quot;background-color: initial;&quot;&gt;I&amp;nbsp;been ?&lt;br&gt;&lt;/span&gt;&lt;br&gt;had&lt;font style=&quot;border-color: var(--border-color);&quot; color=&quot;#ff0000&quot;&gt;n&#39;t&amp;nbsp;&lt;/font&gt;&lt;span style=&quot;background-color: initial;&quot;&gt;You&amp;nbsp;been ?&lt;br&gt;&lt;/span&gt;&lt;br&gt;had&lt;font style=&quot;border-color: var(--border-color);&quot; color=&quot;#ff0000&quot;&gt;n&#39;t&amp;nbsp;&lt;/font&gt;&lt;span style=&quot;background-color: initial;&quot;&gt;He/She/It&amp;nbsp;been ?&lt;/span&gt;&lt;br&gt;&lt;br&gt;had&lt;font style=&quot;border-color: var(--border-color);&quot; color=&quot;#ff0000&quot;&gt;n&#39;t&amp;nbsp;&lt;/font&gt;&lt;span style=&quot;background-color: initial;&quot;&gt;We&amp;nbsp;been ?&lt;br&gt;&lt;/span&gt;&lt;br&gt;had&lt;font style=&quot;border-color: var(--border-color);&quot; color=&quot;#ff0000&quot;&gt;n&#39;t&amp;nbsp;&lt;/font&gt;&lt;span style=&quot;background-color: initial;&quot;&gt;You&amp;nbsp;been ?&lt;br&gt;&lt;/span&gt;&lt;br&gt;had&lt;font style=&quot;border-color: var(--border-color);&quot; color=&quot;#ff0000&quot;&gt;n&#39;t&amp;nbsp;&lt;/font&gt;&lt;span style=&quot;background-color: initial;&quot;&gt;They&amp;nbsp;been ?&lt;/span&gt;" style="text;strokeColor=none;fillColor=none;html=1;verticalAlign=middle;overflow=hidden;spacingTop=0;whiteSpace=wrap;horizontal=1;spacing=0;fontSize=16;fontFamily=Comic Sans MS;spacingLeft=20;fontColor=#66B2FF;" parent="dH2ktReE65H0-K7HurxZ-3" vertex="1">
          <mxGeometry x="254" y="150" width="228" height="240" as="geometry" />
        </mxCell>
        <mxCell id="wq_cmzW5N2Y1-mYz72yh-37" value="Algo que ocurriÃ³ antes de que algo mas pasara" style="text;html=1;strokeColor=none;fillColor=none;align=center;verticalAlign=middle;whiteSpace=wrap;rounded=0;" parent="dH2ktReE65H0-K7HurxZ-3" vertex="1">
          <mxGeometry x="240" y="20" width="180" height="30" as="geometry" />
        </mxCell>
        <mxCell id="dH2ktReE65H0-K7HurxZ-4" value="" style="group" parent="1" vertex="1" connectable="0">
          <mxGeometry x="1960" y="190" width="1760" height="770" as="geometry" />
        </mxCell>
        <mxCell id="wq_cmzW5N2Y1-mYz72yh-41" value="" style="rounded=1;whiteSpace=wrap;html=1;fillColor=#f5f5f5;fontColor=#333333;strokeColor=#666666;glass=0;shadow=0;arcSize=5;fontFamily=Comic Sans MS;" parent="dH2ktReE65H0-K7HurxZ-4" vertex="1">
          <mxGeometry y="78.46000000000001" width="1760" height="691.54" as="geometry" />
        </mxCell>
        <mxCell id="wq_cmzW5N2Y1-mYz72yh-42" value="Modales" style="text;strokeColor=none;fillColor=none;html=1;fontSize=24;fontStyle=1;verticalAlign=middle;align=center;fontFamily=Comic Sans MS;" parent="dH2ktReE65H0-K7HurxZ-4" vertex="1">
          <mxGeometry x="590" width="230" height="78.46153846153847" as="geometry" />
        </mxCell>
        <mxCell id="wq_cmzW5N2Y1-mYz72yh-43" value="&lt;font face=&quot;Comic Sans MS&quot;&gt;&lt;span style=&quot;background-color: initial;&quot;&gt;can I&amp;nbsp;&lt;font color=&quot;#ff0000&quot;&gt;not&lt;/font&gt; be ?&lt;br&gt;&lt;/span&gt;&lt;br&gt;can You&amp;nbsp;&lt;/font&gt;&lt;font color=&quot;#ff0000&quot;&gt;not&lt;/font&gt;&amp;nbsp;&lt;font face=&quot;Comic Sans MS&quot;&gt;&lt;span style=&quot;background-color: initial;&quot;&gt;be ?&lt;br&gt;&lt;/span&gt;&lt;br&gt;can He/She/It&amp;nbsp;&lt;/font&gt;&lt;font color=&quot;#ff0000&quot;&gt;not&lt;/font&gt;&lt;font face=&quot;Comic Sans MS&quot;&gt;&lt;span style=&quot;background-color: initial;&quot;&gt;&amp;nbsp;be ?&lt;/span&gt;&lt;br&gt;&lt;br&gt;can We&amp;nbsp;&lt;/font&gt;&lt;font color=&quot;#ff0000&quot;&gt;not&lt;/font&gt;&amp;nbsp;&lt;font face=&quot;Comic Sans MS&quot;&gt;&lt;span style=&quot;background-color: initial;&quot;&gt;be ?&lt;br&gt;&lt;/span&gt;&lt;br&gt;can You&amp;nbsp;&lt;/font&gt;&lt;font color=&quot;#ff0000&quot;&gt;not&lt;/font&gt; &lt;font face=&quot;Comic Sans MS&quot;&gt;&lt;span style=&quot;background-color: initial;&quot;&gt;be ?&lt;br&gt;&lt;/span&gt;&lt;br&gt;can They&amp;nbsp;&lt;/font&gt;&lt;font color=&quot;#ff0000&quot;&gt;not&lt;/font&gt;&amp;nbsp;&lt;font face=&quot;Comic Sans MS&quot;&gt;&lt;span style=&quot;background-color: initial;&quot;&gt;be ?&lt;/span&gt;&lt;/font&gt;" style="text;strokeColor=none;fillColor=none;html=1;verticalAlign=middle;overflow=hidden;spacingTop=0;whiteSpace=wrap;horizontal=1;spacing=0;fontSize=16;fontFamily=Comic Sans MS;spacingLeft=20;fontColor=#66B2FF;" parent="dH2ktReE65H0-K7HurxZ-4" vertex="1">
          <mxGeometry y="220" width="210" height="240" as="geometry" />
        </mxCell>
        <mxCell id="wq_cmzW5N2Y1-mYz72yh-44" value="Yo no puedo ser&lt;br&gt;&lt;br&gt;Yo no puedo estar" style="text;html=1;strokeColor=none;fillColor=none;align=center;verticalAlign=middle;whiteSpace=wrap;rounded=0;fontFamily=Comic Sans MS;" parent="dH2ktReE65H0-K7HurxZ-4" vertex="1">
          <mxGeometry x="10" y="135.76999999999998" width="130" height="78.46" as="geometry" />
        </mxCell>
        <mxCell id="wq_cmzW5N2Y1-mYz72yh-45" value="would&amp;nbsp;&lt;font face=&quot;Comic Sans MS&quot;&gt;&lt;span style=&quot;background-color: initial;&quot;&gt;I&amp;nbsp;&lt;font color=&quot;#ff0000&quot;&gt;not&lt;/font&gt; be ?&lt;br&gt;&lt;/span&gt;&lt;br&gt;&lt;/font&gt;would&amp;nbsp;&lt;font face=&quot;Comic Sans MS&quot;&gt;You&lt;/font&gt;&lt;font face=&quot;Comic Sans MS&quot;&gt;&lt;span style=&quot;background-color: initial;&quot;&gt;&amp;nbsp;&lt;font color=&quot;#ff0000&quot;&gt;not&lt;/font&gt; be ?&lt;br&gt;&lt;/span&gt;&lt;br&gt;&lt;/font&gt;would&amp;nbsp;&lt;font face=&quot;Comic Sans MS&quot;&gt;He/She/It&lt;/font&gt;&lt;font face=&quot;Comic Sans MS&quot;&gt;&lt;span style=&quot;background-color: initial;&quot;&gt;&amp;nbsp;&lt;font color=&quot;#ff0000&quot;&gt;not&lt;/font&gt; be ?&lt;/span&gt;&lt;br&gt;&lt;br&gt;&lt;/font&gt;would&amp;nbsp;&lt;font face=&quot;Comic Sans MS&quot;&gt;We&lt;/font&gt;&lt;font face=&quot;Comic Sans MS&quot;&gt;&lt;span style=&quot;background-color: initial;&quot;&gt;&amp;nbsp;&lt;font color=&quot;#ff0000&quot;&gt;not&lt;/font&gt; be ?&lt;br&gt;&lt;/span&gt;&lt;br&gt;&lt;/font&gt;would&amp;nbsp;&lt;font face=&quot;Comic Sans MS&quot;&gt;You&lt;/font&gt;&lt;font face=&quot;Comic Sans MS&quot;&gt;&lt;span style=&quot;background-color: initial;&quot;&gt;&amp;nbsp;&lt;font color=&quot;#ff0000&quot;&gt;not&lt;/font&gt; be ?&lt;br&gt;&lt;/span&gt;&lt;br&gt;&lt;/font&gt;would&amp;nbsp;&lt;font face=&quot;Comic Sans MS&quot;&gt;They&lt;/font&gt;&lt;font face=&quot;Comic Sans MS&quot;&gt;&lt;span style=&quot;background-color: initial;&quot;&gt;&amp;nbsp;&lt;font color=&quot;#ff0000&quot;&gt;not&lt;/font&gt; be ?&lt;/span&gt;&lt;/font&gt;" style="text;strokeColor=none;fillColor=none;html=1;verticalAlign=middle;overflow=hidden;spacingTop=0;whiteSpace=wrap;horizontal=1;spacing=0;fontSize=16;fontFamily=Comic Sans MS;spacingLeft=20;fontColor=#66B2FF;" parent="dH2ktReE65H0-K7HurxZ-4" vertex="1">
          <mxGeometry x="240" y="220" width="230" height="240" as="geometry" />
        </mxCell>
        <mxCell id="wq_cmzW5N2Y1-mYz72yh-46" value="Yo no seria&lt;br&gt;&lt;br&gt;Yo no estarÃ­a" style="text;html=1;strokeColor=none;fillColor=none;align=center;verticalAlign=middle;whiteSpace=wrap;rounded=0;fontFamily=Comic Sans MS;" parent="dH2ktReE65H0-K7HurxZ-4" vertex="1">
          <mxGeometry x="270" y="135.76999999999998" width="120" height="78.46" as="geometry" />
        </mxCell>
        <mxCell id="wq_cmzW5N2Y1-mYz72yh-47" value="could&amp;nbsp;&lt;font face=&quot;Comic Sans MS&quot;&gt;&lt;span style=&quot;background-color: initial;&quot;&gt;I&amp;nbsp;&lt;font color=&quot;#ff0000&quot;&gt;not&lt;/font&gt; be ?&lt;br&gt;&lt;/span&gt;&lt;br&gt;&lt;/font&gt;could&amp;nbsp;&lt;font face=&quot;Comic Sans MS&quot;&gt;You&lt;/font&gt;&lt;font face=&quot;Comic Sans MS&quot;&gt;&lt;span style=&quot;background-color: initial;&quot;&gt;&amp;nbsp;&lt;font color=&quot;#ff0000&quot;&gt;not&lt;/font&gt; be ?&lt;br&gt;&lt;/span&gt;&lt;br&gt;&lt;/font&gt;&lt;font style=&quot;border-color: var(--border-color);&quot; face=&quot;Comic Sans MS&quot;&gt;c&lt;/font&gt;ould&amp;nbsp;&lt;font face=&quot;Comic Sans MS&quot;&gt;He/She/It&lt;/font&gt;&lt;font face=&quot;Comic Sans MS&quot;&gt;&lt;span style=&quot;background-color: initial;&quot;&gt;&amp;nbsp;&lt;font color=&quot;#ff0000&quot;&gt;not&lt;/font&gt; be ?&lt;/span&gt;&lt;br&gt;&lt;br&gt;&lt;/font&gt;could&amp;nbsp;&lt;font face=&quot;Comic Sans MS&quot;&gt;We&lt;/font&gt;&lt;font face=&quot;Comic Sans MS&quot;&gt;&lt;span style=&quot;background-color: initial;&quot;&gt;&amp;nbsp;&lt;font color=&quot;#ff0000&quot;&gt;not&lt;/font&gt; be ?&lt;br&gt;&lt;/span&gt;&lt;br&gt;&lt;/font&gt;could&amp;nbsp;&lt;font face=&quot;Comic Sans MS&quot;&gt;You&lt;/font&gt;&lt;font face=&quot;Comic Sans MS&quot;&gt;&lt;span style=&quot;background-color: initial;&quot;&gt;&amp;nbsp;&lt;font color=&quot;#ff0000&quot;&gt;not&lt;/font&gt; be ?&lt;br&gt;&lt;/span&gt;&lt;br&gt;&lt;/font&gt;could&amp;nbsp;&lt;font face=&quot;Comic Sans MS&quot;&gt;They&lt;/font&gt;&amp;nbsp;&lt;font color=&quot;#ff0000&quot;&gt;not&lt;/font&gt;&lt;font face=&quot;Comic Sans MS&quot;&gt;&lt;span style=&quot;background-color: initial;&quot;&gt;&amp;nbsp;be ?&lt;/span&gt;&lt;/font&gt;" style="text;strokeColor=none;fillColor=none;html=1;verticalAlign=middle;overflow=hidden;spacingTop=0;whiteSpace=wrap;horizontal=1;spacing=0;fontSize=16;fontFamily=Comic Sans MS;spacingLeft=20;fontColor=#66B2FF;" parent="dH2ktReE65H0-K7HurxZ-4" vertex="1">
          <mxGeometry x="500" y="226.54000000000002" width="240" height="226.92" as="geometry" />
        </mxCell>
        <mxCell id="wq_cmzW5N2Y1-mYz72yh-48" value="Yo no podrÃ­a ser&lt;br&gt;&lt;br&gt;Yo no podrÃ­a estar" style="text;html=1;strokeColor=none;fillColor=none;align=center;verticalAlign=middle;whiteSpace=wrap;rounded=0;fontFamily=Comic Sans MS;" parent="dH2ktReE65H0-K7HurxZ-4" vertex="1">
          <mxGeometry x="520" y="135.76999999999998" width="140" height="78.46" as="geometry" />
        </mxCell>
        <mxCell id="wq_cmzW5N2Y1-mYz72yh-49" value="should&amp;nbsp;&lt;font face=&quot;Comic Sans MS&quot;&gt;&lt;span style=&quot;background-color: initial;&quot;&gt;I&amp;nbsp;&lt;font color=&quot;#ff0000&quot;&gt;not&lt;/font&gt; be ?&lt;br&gt;&lt;/span&gt;&lt;br&gt;&lt;/font&gt;&lt;font style=&quot;border-color: var(--border-color);&quot; face=&quot;Comic Sans MS&quot;&gt;should&lt;/font&gt;&lt;font style=&quot;border-color: var(--border-color);&quot; face=&quot;Comic Sans MS&quot;&gt;&amp;nbsp;&lt;/font&gt;&lt;font face=&quot;Comic Sans MS&quot;&gt;You &lt;/font&gt;&lt;font face=&quot;Comic Sans MS&quot;&gt;&lt;span style=&quot;background-color: initial;&quot;&gt;&lt;font color=&quot;#ff0000&quot;&gt;not&lt;/font&gt; be ?&lt;br&gt;&lt;/span&gt;&lt;br&gt;&lt;/font&gt;&lt;font style=&quot;border-color: var(--border-color);&quot; face=&quot;Comic Sans MS&quot;&gt;sh&lt;/font&gt;ould&amp;nbsp;&lt;font face=&quot;Comic Sans MS&quot;&gt;He/She/It&lt;/font&gt;&lt;font face=&quot;Comic Sans MS&quot;&gt;&lt;span style=&quot;background-color: initial;&quot;&gt;&amp;nbsp;&lt;font color=&quot;#ff0000&quot;&gt;not&lt;/font&gt; be ?&lt;/span&gt;&lt;br&gt;&lt;br&gt;&lt;/font&gt;&lt;font style=&quot;border-color: var(--border-color);&quot; face=&quot;Comic Sans MS&quot;&gt;sh&lt;/font&gt;ould&amp;nbsp;&lt;font face=&quot;Comic Sans MS&quot;&gt;We &lt;/font&gt;&lt;font face=&quot;Comic Sans MS&quot;&gt;&lt;span style=&quot;background-color: initial;&quot;&gt;&lt;font color=&quot;#ff0000&quot;&gt;not&lt;/font&gt; be ?&lt;br&gt;&lt;/span&gt;&lt;br&gt;&lt;/font&gt;&lt;font style=&quot;border-color: var(--border-color);&quot; face=&quot;Comic Sans MS&quot;&gt;sh&lt;/font&gt;ould&amp;nbsp;&lt;font face=&quot;Comic Sans MS&quot;&gt;You&lt;/font&gt;&lt;font face=&quot;Comic Sans MS&quot;&gt;&lt;span style=&quot;background-color: initial;&quot;&gt;&amp;nbsp;&lt;font color=&quot;#ff0000&quot;&gt;not&lt;/font&gt; be ?&lt;br&gt;&lt;/span&gt;&lt;br&gt;&lt;/font&gt;&lt;font style=&quot;border-color: var(--border-color);&quot; face=&quot;Comic Sans MS&quot;&gt;sh&lt;/font&gt;ould&amp;nbsp;&lt;font face=&quot;Comic Sans MS&quot;&gt;They&lt;/font&gt;&lt;font face=&quot;Comic Sans MS&quot;&gt;&lt;span style=&quot;background-color: initial;&quot;&gt;&amp;nbsp;&lt;font color=&quot;#ff0000&quot;&gt;not&lt;/font&gt; be ?&lt;/span&gt;&lt;/font&gt;" style="text;strokeColor=none;fillColor=none;html=1;verticalAlign=middle;overflow=hidden;spacingTop=0;whiteSpace=wrap;horizontal=1;spacing=0;fontSize=16;fontFamily=Comic Sans MS;spacingLeft=20;fontColor=#66B2FF;" parent="dH2ktReE65H0-K7HurxZ-4" vertex="1">
          <mxGeometry x="750" y="225" width="270" height="230" as="geometry" />
        </mxCell>
        <mxCell id="wq_cmzW5N2Y1-mYz72yh-50" value="Yo deberÃ­a ser&lt;br&gt;&lt;br&gt;Yo deberÃ­a estar" style="text;html=1;strokeColor=none;fillColor=none;align=center;verticalAlign=middle;whiteSpace=wrap;rounded=0;fontFamily=Comic Sans MS;" parent="dH2ktReE65H0-K7HurxZ-4" vertex="1">
          <mxGeometry x="770" y="130.00230769230768" width="100" height="78.46153846153847" as="geometry" />
        </mxCell>
        <mxCell id="wq_cmzW5N2Y1-mYz72yh-51" value="must&amp;nbsp;&lt;font face=&quot;Comic Sans MS&quot;&gt;&lt;span style=&quot;background-color: initial;&quot;&gt;I &lt;font color=&quot;#ff0000&quot;&gt;not&lt;/font&gt; be ?&lt;br&gt;&lt;/span&gt;&lt;br&gt;&lt;/font&gt;must&amp;nbsp;&lt;font face=&quot;Comic Sans MS&quot;&gt;You&amp;nbsp;&lt;font color=&quot;#ff0000&quot;&gt;not&lt;/font&gt;&lt;/font&gt;&lt;font face=&quot;Comic Sans MS&quot;&gt;&lt;span style=&quot;background-color: initial;&quot;&gt;&amp;nbsp;be ?&lt;br&gt;&lt;/span&gt;&lt;br&gt;&lt;/font&gt;must&amp;nbsp;&lt;font face=&quot;Comic Sans MS&quot;&gt;He/She/It&amp;nbsp;&lt;font color=&quot;#ff0000&quot;&gt;not&lt;/font&gt;&lt;/font&gt;&lt;font face=&quot;Comic Sans MS&quot;&gt;&lt;span style=&quot;background-color: initial;&quot;&gt;&amp;nbsp;be ?&lt;/span&gt;&lt;br&gt;&lt;br&gt;&lt;/font&gt;must&amp;nbsp;&lt;font face=&quot;Comic Sans MS&quot;&gt;We&amp;nbsp;&lt;font color=&quot;#ff0000&quot;&gt;not&lt;/font&gt;&lt;/font&gt;&lt;font face=&quot;Comic Sans MS&quot;&gt;&lt;span style=&quot;background-color: initial;&quot;&gt;&amp;nbsp;be ?&lt;br&gt;&lt;/span&gt;&lt;br&gt;&lt;/font&gt;must&amp;nbsp;&lt;font face=&quot;Comic Sans MS&quot;&gt;You&lt;/font&gt;&lt;font face=&quot;Comic Sans MS&quot;&gt;&lt;span style=&quot;background-color: initial;&quot;&gt;&amp;nbsp;&lt;font color=&quot;#ff0000&quot;&gt;not&lt;/font&gt; be ?&lt;br&gt;&lt;/span&gt;&lt;br&gt;&lt;/font&gt;must&amp;nbsp;&lt;font face=&quot;Comic Sans MS&quot;&gt;They&amp;nbsp;&lt;font color=&quot;#ff0000&quot;&gt;not&lt;/font&gt;&lt;/font&gt;&lt;font face=&quot;Comic Sans MS&quot;&gt;&lt;span style=&quot;background-color: initial;&quot;&gt;&amp;nbsp;be ?&lt;/span&gt;&lt;/font&gt;" style="text;strokeColor=none;fillColor=none;html=1;verticalAlign=middle;overflow=hidden;spacingTop=0;whiteSpace=wrap;horizontal=1;spacing=0;fontSize=16;fontFamily=Comic Sans MS;spacingLeft=20;fontColor=#66B2FF;" parent="dH2ktReE65H0-K7HurxZ-4" vertex="1">
          <mxGeometry x="1000" y="220" width="230" height="240" as="geometry" />
        </mxCell>
        <mxCell id="wq_cmzW5N2Y1-mYz72yh-52" value="Yo no debo ser&lt;br&gt;&lt;br&gt;Yo no debo estar" style="text;html=1;strokeColor=none;fillColor=none;align=center;verticalAlign=middle;whiteSpace=wrap;rounded=0;fontFamily=Comic Sans MS;" parent="dH2ktReE65H0-K7HurxZ-4" vertex="1">
          <mxGeometry x="1020" y="130" width="140" height="78.46" as="geometry" />
        </mxCell>
        <mxCell id="wq_cmzW5N2Y1-mYz72yh-53" value="&lt;font face=&quot;Comic Sans MS&quot;&gt;&lt;span style=&quot;background-color: initial;&quot;&gt;do I&amp;nbsp;&lt;font color=&quot;#ff0000&quot;&gt;not&lt;/font&gt; have to be ?&lt;br&gt;&lt;/span&gt;&lt;br&gt;do You&amp;nbsp;&lt;font color=&quot;#ff0000&quot;&gt;not&lt;/font&gt; have to&lt;/font&gt;&lt;font face=&quot;Comic Sans MS&quot;&gt;&lt;span style=&quot;background-color: initial;&quot;&gt;&amp;nbsp;be ?&lt;br&gt;&lt;/span&gt;&lt;br&gt;does He/She/It&amp;nbsp;&lt;font color=&quot;#ff0000&quot;&gt;not&lt;/font&gt; have to&lt;/font&gt;&lt;font face=&quot;Comic Sans MS&quot;&gt;&lt;span style=&quot;background-color: initial;&quot;&gt;&amp;nbsp;be ?&lt;/span&gt;&lt;br&gt;&lt;br&gt;do We&amp;nbsp;&lt;font color=&quot;#ff0000&quot;&gt;not&lt;/font&gt; have&lt;/font&gt;&lt;font face=&quot;Comic Sans MS&quot;&gt;&lt;span style=&quot;background-color: initial;&quot;&gt;&amp;nbsp;to be ?&lt;br&gt;&lt;/span&gt;&lt;br&gt;do You&amp;nbsp;&lt;font color=&quot;#ff0000&quot;&gt;not&lt;/font&gt; have to&lt;/font&gt;&lt;font face=&quot;Comic Sans MS&quot;&gt;&lt;span style=&quot;background-color: initial;&quot;&gt;&amp;nbsp;be ?&lt;br&gt;&lt;/span&gt;&lt;br&gt;do They&amp;nbsp;&lt;font color=&quot;#ff0000&quot;&gt;not&lt;/font&gt; have to&lt;/font&gt;&lt;font face=&quot;Comic Sans MS&quot;&gt;&lt;span style=&quot;background-color: initial;&quot;&gt;&amp;nbsp;be ?&lt;/span&gt;&lt;/font&gt;" style="text;strokeColor=none;fillColor=none;html=1;verticalAlign=middle;overflow=hidden;spacingTop=0;whiteSpace=wrap;horizontal=1;spacing=0;fontSize=16;fontFamily=Comic Sans MS;spacingLeft=20;fontColor=#66B2FF;" parent="dH2ktReE65H0-K7HurxZ-4" vertex="1">
          <mxGeometry x="1225" y="229.61" width="265" height="223.85" as="geometry" />
        </mxCell>
        <mxCell id="wq_cmzW5N2Y1-mYz72yh-54" value="Yo no tengo que ser&lt;br&gt;&lt;br&gt;Yo no tengo que estar" style="text;html=1;strokeColor=none;fillColor=none;align=center;verticalAlign=middle;whiteSpace=wrap;rounded=0;fontFamily=Comic Sans MS;" parent="dH2ktReE65H0-K7HurxZ-4" vertex="1">
          <mxGeometry x="1260" y="130" width="150" height="78.46" as="geometry" />
        </mxCell>
        <mxCell id="wq_cmzW5N2Y1-mYz72yh-55" value="may&amp;nbsp;&lt;font face=&quot;Comic Sans MS&quot;&gt;&lt;span style=&quot;background-color: initial;&quot;&gt;I &lt;font color=&quot;#ff0000&quot;&gt;not&lt;/font&gt; be ?&lt;br&gt;&lt;/span&gt;&lt;br&gt;&lt;/font&gt;may&amp;nbsp;&lt;font face=&quot;Comic Sans MS&quot;&gt;You&amp;nbsp;&lt;font color=&quot;#ff0000&quot;&gt;not&lt;/font&gt;&lt;/font&gt;&lt;font face=&quot;Comic Sans MS&quot;&gt;&lt;span style=&quot;background-color: initial;&quot;&gt;&amp;nbsp;be ?&lt;br&gt;&lt;/span&gt;&lt;br&gt;&lt;/font&gt;may&amp;nbsp;&lt;font face=&quot;Comic Sans MS&quot;&gt;He/She/It&amp;nbsp;&lt;font color=&quot;#ff0000&quot;&gt;not&lt;/font&gt;&lt;/font&gt;&lt;font face=&quot;Comic Sans MS&quot;&gt;&lt;span style=&quot;background-color: initial;&quot;&gt;&amp;nbsp;be ?&lt;/span&gt;&lt;br&gt;&lt;br&gt;&lt;/font&gt;may&amp;nbsp;&lt;font face=&quot;Comic Sans MS&quot;&gt;We&amp;nbsp;&lt;/font&gt;&lt;font face=&quot;Comic Sans MS&quot;&gt;&lt;span style=&quot;background-color: initial;&quot;&gt;&lt;font color=&quot;#ff0000&quot;&gt;not&lt;/font&gt; be ?&lt;br&gt;&lt;/span&gt;&lt;br&gt;&lt;/font&gt;may&amp;nbsp;&lt;font face=&quot;Comic Sans MS&quot;&gt;You&lt;/font&gt;&lt;font face=&quot;Comic Sans MS&quot;&gt;&lt;span style=&quot;background-color: initial;&quot;&gt;&amp;nbsp;&lt;font color=&quot;#ff0000&quot;&gt;not&lt;/font&gt; be ?&lt;br&gt;&lt;/span&gt;&lt;br&gt;&lt;/font&gt;may&amp;nbsp;&lt;font face=&quot;Comic Sans MS&quot;&gt;They&lt;/font&gt;&lt;font face=&quot;Comic Sans MS&quot;&gt;&lt;span style=&quot;background-color: initial;&quot;&gt;&amp;nbsp;&lt;font color=&quot;#ff0000&quot;&gt;not&lt;/font&gt; be ?&lt;/span&gt;&lt;/font&gt;" style="text;strokeColor=none;fillColor=none;html=1;verticalAlign=middle;overflow=hidden;spacingTop=0;whiteSpace=wrap;horizontal=1;spacing=0;fontSize=16;fontFamily=Comic Sans MS;spacingLeft=20;fontColor=#66B2FF;" parent="dH2ktReE65H0-K7HurxZ-4" vertex="1">
          <mxGeometry x="1520" y="229.61" width="210" height="230.39" as="geometry" />
        </mxCell>
        <mxCell id="wq_cmzW5N2Y1-mYz72yh-56" value="Yo puede que no sea&lt;br&gt;&lt;br&gt;Yo puede que no este" style="text;html=1;strokeColor=none;fillColor=none;align=center;verticalAlign=middle;whiteSpace=wrap;rounded=0;fontFamily=Comic Sans MS;" parent="dH2ktReE65H0-K7HurxZ-4" vertex="1">
          <mxGeometry x="1530" y="130" width="170" height="78.46" as="geometry" />
        </mxCell>
        <mxCell id="dCN5y319V1dZhfIS2Bhl-7" value="ca&lt;font style=&quot;border-color: var(--border-color);&quot; color=&quot;#ff0000&quot;&gt;n&#39;t&amp;nbsp;&lt;/font&gt;&lt;font face=&quot;Comic Sans MS&quot;&gt;&lt;span style=&quot;background-color: initial;&quot;&gt;I&amp;nbsp;be ?&lt;br&gt;&lt;/span&gt;&lt;br&gt;&lt;/font&gt;&lt;font style=&quot;border-color: var(--border-color);&quot; face=&quot;Comic Sans MS&quot;&gt;ca&lt;/font&gt;&lt;font style=&quot;border-color: var(--border-color);&quot; color=&quot;#ff0000&quot;&gt;n&#39;t&amp;nbsp;&lt;/font&gt;&lt;font face=&quot;Comic Sans MS&quot;&gt;You&lt;/font&gt;&amp;nbsp;&lt;font face=&quot;Comic Sans MS&quot;&gt;&lt;span style=&quot;background-color: initial;&quot;&gt;be ?&lt;br&gt;&lt;/span&gt;&lt;br&gt;&lt;/font&gt;&lt;font style=&quot;border-color: var(--border-color);&quot; face=&quot;Comic Sans MS&quot;&gt;ca&lt;/font&gt;&lt;font style=&quot;border-color: var(--border-color);&quot; color=&quot;#ff0000&quot;&gt;n&#39;t&amp;nbsp;&lt;/font&gt;&lt;font face=&quot;Comic Sans MS&quot;&gt;He/She/It&lt;/font&gt;&lt;font face=&quot;Comic Sans MS&quot;&gt;&lt;span style=&quot;background-color: initial;&quot;&gt;&amp;nbsp;be ?&lt;/span&gt;&lt;br&gt;&lt;br&gt;&lt;/font&gt;&lt;font style=&quot;border-color: var(--border-color);&quot; face=&quot;Comic Sans MS&quot;&gt;ca&lt;/font&gt;&lt;font style=&quot;border-color: var(--border-color);&quot; color=&quot;#ff0000&quot;&gt;n&#39;t&amp;nbsp;&lt;/font&gt;&lt;font face=&quot;Comic Sans MS&quot;&gt;We&lt;/font&gt;&amp;nbsp;&lt;font face=&quot;Comic Sans MS&quot;&gt;&lt;span style=&quot;background-color: initial;&quot;&gt;be ?&lt;br&gt;&lt;/span&gt;&lt;br&gt;&lt;/font&gt;&lt;font style=&quot;border-color: var(--border-color);&quot; face=&quot;Comic Sans MS&quot;&gt;ca&lt;/font&gt;&lt;font style=&quot;border-color: var(--border-color);&quot; color=&quot;#ff0000&quot;&gt;n&#39;t&amp;nbsp;&lt;/font&gt;&lt;font face=&quot;Comic Sans MS&quot;&gt;You&lt;/font&gt;&amp;nbsp;&lt;font face=&quot;Comic Sans MS&quot;&gt;&lt;span style=&quot;background-color: initial;&quot;&gt;be ?&lt;br&gt;&lt;/span&gt;&lt;br&gt;&lt;/font&gt;&lt;font style=&quot;border-color: var(--border-color);&quot; face=&quot;Comic Sans MS&quot;&gt;ca&lt;/font&gt;&lt;font style=&quot;border-color: var(--border-color);&quot; color=&quot;#ff0000&quot;&gt;n&#39;t&amp;nbsp;&lt;/font&gt;&lt;font face=&quot;Comic Sans MS&quot;&gt;They&lt;/font&gt;&amp;nbsp;&lt;font face=&quot;Comic Sans MS&quot;&gt;&lt;span style=&quot;background-color: initial;&quot;&gt;be ?&lt;/span&gt;&lt;/font&gt;" style="text;strokeColor=none;fillColor=none;html=1;verticalAlign=middle;overflow=hidden;spacingTop=0;whiteSpace=wrap;horizontal=1;spacing=0;fontSize=16;fontFamily=Comic Sans MS;spacingLeft=20;fontColor=#66B2FF;" parent="dH2ktReE65H0-K7HurxZ-4" vertex="1">
          <mxGeometry y="500" width="210" height="240" as="geometry" />
        </mxCell>
        <mxCell id="dCN5y319V1dZhfIS2Bhl-8" value="would&lt;font style=&quot;border-color: var(--border-color);&quot; color=&quot;#ff0000&quot;&gt;n&#39;t&amp;nbsp;&lt;/font&gt;&lt;font face=&quot;Comic Sans MS&quot;&gt;&lt;span style=&quot;background-color: initial;&quot;&gt;I&amp;nbsp;be ?&lt;br&gt;&lt;/span&gt;&lt;br&gt;&lt;/font&gt;would&lt;font style=&quot;border-color: var(--border-color);&quot; face=&quot;Comic Sans MS&quot;&gt;&lt;font style=&quot;border-color: var(--border-color);&quot; color=&quot;#ff0000&quot;&gt;n&#39;t&amp;nbsp;&lt;/font&gt;&lt;/font&gt;&lt;font face=&quot;Comic Sans MS&quot;&gt;You&lt;/font&gt;&lt;font face=&quot;Comic Sans MS&quot;&gt;&lt;span style=&quot;background-color: initial;&quot;&gt;&amp;nbsp;be ?&lt;br&gt;&lt;/span&gt;&lt;br&gt;&lt;/font&gt;would&lt;font style=&quot;border-color: var(--border-color);&quot; face=&quot;Comic Sans MS&quot;&gt;&lt;font style=&quot;border-color: var(--border-color);&quot; color=&quot;#ff0000&quot;&gt;n&#39;t&amp;nbsp;&lt;/font&gt;&lt;/font&gt;&lt;font face=&quot;Comic Sans MS&quot;&gt;He/She/It&lt;/font&gt;&lt;font face=&quot;Comic Sans MS&quot;&gt;&lt;span style=&quot;background-color: initial;&quot;&gt;&amp;nbsp;be ?&lt;/span&gt;&lt;br&gt;&lt;br&gt;&lt;/font&gt;would&lt;font style=&quot;border-color: var(--border-color);&quot; face=&quot;Comic Sans MS&quot;&gt;&lt;font style=&quot;border-color: var(--border-color);&quot; color=&quot;#ff0000&quot;&gt;n&#39;t&amp;nbsp;&lt;/font&gt;&lt;/font&gt;&lt;font face=&quot;Comic Sans MS&quot;&gt;We&lt;/font&gt;&lt;font face=&quot;Comic Sans MS&quot;&gt;&lt;span style=&quot;background-color: initial;&quot;&gt;&amp;nbsp;be ?&lt;br&gt;&lt;/span&gt;&lt;br&gt;&lt;/font&gt;would&lt;font style=&quot;border-color: var(--border-color);&quot; face=&quot;Comic Sans MS&quot;&gt;&lt;font style=&quot;border-color: var(--border-color);&quot; color=&quot;#ff0000&quot;&gt;n&#39;t&amp;nbsp;&lt;/font&gt;&lt;/font&gt;&lt;font face=&quot;Comic Sans MS&quot;&gt;You&lt;/font&gt;&lt;font face=&quot;Comic Sans MS&quot;&gt;&lt;span style=&quot;background-color: initial;&quot;&gt;&amp;nbsp;be ?&lt;br&gt;&lt;/span&gt;&lt;br&gt;&lt;/font&gt;would&lt;font style=&quot;border-color: var(--border-color);&quot; face=&quot;Comic Sans MS&quot;&gt;&lt;font style=&quot;border-color: var(--border-color);&quot; color=&quot;#ff0000&quot;&gt;n&#39;t&amp;nbsp;&lt;/font&gt;&lt;/font&gt;&lt;font face=&quot;Comic Sans MS&quot;&gt;They&lt;/font&gt;&lt;font face=&quot;Comic Sans MS&quot;&gt;&lt;span style=&quot;background-color: initial;&quot;&gt;&amp;nbsp;be ?&lt;/span&gt;&lt;/font&gt;" style="text;strokeColor=none;fillColor=none;html=1;verticalAlign=middle;overflow=hidden;spacingTop=0;whiteSpace=wrap;horizontal=1;spacing=0;fontSize=16;fontFamily=Comic Sans MS;spacingLeft=20;fontColor=#66B2FF;" parent="dH2ktReE65H0-K7HurxZ-4" vertex="1">
          <mxGeometry x="240" y="500" width="230" height="240" as="geometry" />
        </mxCell>
        <mxCell id="dCN5y319V1dZhfIS2Bhl-9" value="could&lt;font style=&quot;border-color: var(--border-color);&quot; color=&quot;#ff0000&quot;&gt;n&#39;t&amp;nbsp;&lt;/font&gt;&lt;font face=&quot;Comic Sans MS&quot;&gt;&lt;span style=&quot;background-color: initial;&quot;&gt;I&amp;nbsp;be ?&lt;br&gt;&lt;/span&gt;&lt;br&gt;&lt;/font&gt;&lt;font style=&quot;border-color: var(--border-color);&quot; face=&quot;Comic Sans MS&quot;&gt;&amp;nbsp;c&lt;/font&gt;ould&lt;font style=&quot;border-color: var(--border-color);&quot; face=&quot;Comic Sans MS&quot;&gt;&lt;font style=&quot;border-color: var(--border-color);&quot; color=&quot;#ff0000&quot;&gt;n&#39;t&amp;nbsp;&lt;/font&gt;&lt;/font&gt;&lt;font face=&quot;Comic Sans MS&quot;&gt;You&lt;/font&gt;&lt;font face=&quot;Comic Sans MS&quot;&gt;&lt;span style=&quot;background-color: initial;&quot;&gt;&amp;nbsp;be ?&lt;br&gt;&lt;/span&gt;&lt;br&gt;&lt;/font&gt;&lt;font style=&quot;border-color: var(--border-color);&quot; face=&quot;Comic Sans MS&quot;&gt;c&lt;/font&gt;ould&lt;font style=&quot;border-color: var(--border-color);&quot; face=&quot;Comic Sans MS&quot;&gt;&lt;font style=&quot;border-color: var(--border-color);&quot; color=&quot;#ff0000&quot;&gt;n&#39;t&amp;nbsp;&lt;/font&gt;&lt;/font&gt;&lt;font face=&quot;Comic Sans MS&quot;&gt;He/She/It&lt;/font&gt;&lt;font face=&quot;Comic Sans MS&quot;&gt;&lt;span style=&quot;background-color: initial;&quot;&gt;&amp;nbsp;be ?&lt;/span&gt;&lt;br&gt;&lt;br&gt;&lt;/font&gt;could&lt;font style=&quot;border-color: var(--border-color);&quot; face=&quot;Comic Sans MS&quot;&gt;&lt;font style=&quot;border-color: var(--border-color);&quot; color=&quot;#ff0000&quot;&gt;n&#39;t&amp;nbsp;&lt;/font&gt;&lt;/font&gt;&lt;font face=&quot;Comic Sans MS&quot;&gt;We&lt;/font&gt;&lt;font face=&quot;Comic Sans MS&quot;&gt;&lt;span style=&quot;background-color: initial;&quot;&gt;&amp;nbsp;be ?&lt;br&gt;&lt;/span&gt;&lt;br&gt;&lt;/font&gt;&lt;font style=&quot;border-color: var(--border-color);&quot; face=&quot;Comic Sans MS&quot;&gt;c&lt;/font&gt;ould&lt;font style=&quot;border-color: var(--border-color);&quot; face=&quot;Comic Sans MS&quot;&gt;&lt;font style=&quot;border-color: var(--border-color);&quot; color=&quot;#ff0000&quot;&gt;n&#39;t&amp;nbsp;&lt;/font&gt;&lt;/font&gt;&lt;font face=&quot;Comic Sans MS&quot;&gt;You&lt;/font&gt;&lt;font face=&quot;Comic Sans MS&quot;&gt;&lt;span style=&quot;background-color: initial;&quot;&gt;&amp;nbsp;be ?&lt;br&gt;&lt;/span&gt;&lt;br&gt;&lt;/font&gt;&lt;font style=&quot;border-color: var(--border-color);&quot; face=&quot;Comic Sans MS&quot;&gt;c&lt;/font&gt;ould&lt;font style=&quot;border-color: var(--border-color);&quot; color=&quot;#ff0000&quot;&gt;n&#39;t&lt;/font&gt;&lt;font style=&quot;border-color: var(--border-color);&quot; face=&quot;Comic Sans MS&quot;&gt;&amp;nbsp;&lt;/font&gt;&lt;font face=&quot;Comic Sans MS&quot;&gt;They &lt;/font&gt;&lt;font face=&quot;Comic Sans MS&quot;&gt;&lt;span style=&quot;background-color: initial;&quot;&gt;be ?&lt;/span&gt;&lt;/font&gt;" style="text;strokeColor=none;fillColor=none;html=1;verticalAlign=middle;overflow=hidden;spacingTop=0;whiteSpace=wrap;horizontal=1;spacing=0;fontSize=16;fontFamily=Comic Sans MS;spacingLeft=20;fontColor=#66B2FF;" parent="dH2ktReE65H0-K7HurxZ-4" vertex="1">
          <mxGeometry x="500" y="506.53999999999996" width="240" height="226.92" as="geometry" />
        </mxCell>
        <mxCell id="dCN5y319V1dZhfIS2Bhl-10" value="should&lt;font style=&quot;border-color: var(--border-color);&quot; color=&quot;#ff0000&quot;&gt;n&#39;t&amp;nbsp;&lt;/font&gt;&lt;font face=&quot;Comic Sans MS&quot;&gt;&lt;span style=&quot;background-color: initial;&quot;&gt;I&amp;nbsp;be ?&lt;br&gt;&lt;/span&gt;&lt;br&gt;&lt;/font&gt;should&lt;font style=&quot;border-color: var(--border-color);&quot; color=&quot;#ff0000&quot;&gt;n&#39;t&amp;nbsp;&lt;/font&gt;&lt;font face=&quot;Comic Sans MS&quot;&gt;You&lt;/font&gt;&lt;font face=&quot;Comic Sans MS&quot;&gt;&lt;span style=&quot;background-color: initial;&quot;&gt;&amp;nbsp;be ?&lt;br&gt;&lt;/span&gt;&lt;br&gt;&lt;/font&gt;should&lt;font style=&quot;border-color: var(--border-color);&quot; color=&quot;#ff0000&quot;&gt;n&#39;t&amp;nbsp;&lt;/font&gt;&lt;font face=&quot;Comic Sans MS&quot;&gt;He/She/It&lt;/font&gt;&lt;font face=&quot;Comic Sans MS&quot;&gt;&lt;span style=&quot;background-color: initial;&quot;&gt;&amp;nbsp;be ?&lt;/span&gt;&lt;br&gt;&lt;br&gt;&lt;/font&gt;should&lt;font style=&quot;border-color: var(--border-color);&quot; color=&quot;#ff0000&quot;&gt;n&#39;t&amp;nbsp;&lt;/font&gt;&lt;font face=&quot;Comic Sans MS&quot;&gt;We&lt;/font&gt;&lt;font face=&quot;Comic Sans MS&quot;&gt;&lt;span style=&quot;background-color: initial;&quot;&gt;&amp;nbsp;be ?&lt;br&gt;&lt;/span&gt;&lt;br&gt;&lt;/font&gt;&lt;font style=&quot;border-color: var(--border-color);&quot; face=&quot;Comic Sans MS&quot;&gt;sh&lt;/font&gt;ould&lt;font style=&quot;border-color: var(--border-color);&quot; face=&quot;Comic Sans MS&quot;&gt;&lt;font style=&quot;border-color: var(--border-color);&quot; color=&quot;#ff0000&quot;&gt;n&#39;t&lt;/font&gt;&amp;nbsp;&lt;/font&gt;&lt;font face=&quot;Comic Sans MS&quot;&gt;You &lt;/font&gt;&lt;font face=&quot;Comic Sans MS&quot;&gt;&lt;span style=&quot;background-color: initial;&quot;&gt;be ?&lt;br&gt;&lt;/span&gt;&lt;br&gt;&lt;/font&gt;&lt;font style=&quot;border-color: var(--border-color);&quot; face=&quot;Comic Sans MS&quot;&gt;sh&lt;/font&gt;ould&lt;font style=&quot;border-color: var(--border-color);&quot; face=&quot;Comic Sans MS&quot;&gt;&lt;font style=&quot;border-color: var(--border-color);&quot; color=&quot;#ff0000&quot;&gt;n&#39;t&lt;/font&gt;&amp;nbsp;&lt;/font&gt;&lt;font face=&quot;Comic Sans MS&quot;&gt;They&lt;/font&gt;&lt;font face=&quot;Comic Sans MS&quot;&gt;&lt;span style=&quot;background-color: initial;&quot;&gt;&amp;nbsp;be ?&lt;/span&gt;&lt;/font&gt;" style="text;strokeColor=none;fillColor=none;html=1;verticalAlign=middle;overflow=hidden;spacingTop=0;whiteSpace=wrap;horizontal=1;spacing=0;fontSize=16;fontFamily=Comic Sans MS;spacingLeft=20;fontColor=#66B2FF;" parent="dH2ktReE65H0-K7HurxZ-4" vertex="1">
          <mxGeometry x="750" y="506.53999999999996" width="270" height="230" as="geometry" />
        </mxCell>
        <mxCell id="dCN5y319V1dZhfIS2Bhl-11" value="must&lt;font style=&quot;border-color: var(--border-color);&quot; color=&quot;#ff0000&quot;&gt;n&#39;t&lt;/font&gt;&amp;nbsp;&lt;font face=&quot;Comic Sans MS&quot;&gt;&lt;span style=&quot;background-color: initial;&quot;&gt;I be ?&lt;br&gt;&lt;/span&gt;&lt;br&gt;&lt;/font&gt;must&lt;font style=&quot;border-color: var(--border-color);&quot; color=&quot;#ff0000&quot;&gt;n&#39;t&lt;/font&gt;&amp;nbsp;&lt;font face=&quot;Comic Sans MS&quot;&gt;You &lt;/font&gt;&lt;font face=&quot;Comic Sans MS&quot;&gt;&lt;span style=&quot;background-color: initial;&quot;&gt;be ?&lt;br&gt;&lt;/span&gt;&lt;br&gt;&lt;/font&gt;must&lt;font style=&quot;border-color: var(--border-color);&quot; color=&quot;#ff0000&quot;&gt;n&#39;t&lt;/font&gt;&amp;nbsp;&lt;font face=&quot;Comic Sans MS&quot;&gt;He/She/It &lt;/font&gt;&lt;font face=&quot;Comic Sans MS&quot;&gt;&lt;span style=&quot;background-color: initial;&quot;&gt;be ?&lt;/span&gt;&lt;br&gt;&lt;br&gt;&lt;/font&gt;must&lt;font style=&quot;border-color: var(--border-color);&quot; color=&quot;#ff0000&quot;&gt;n&#39;t&lt;/font&gt;&amp;nbsp;&lt;font face=&quot;Comic Sans MS&quot;&gt;We&lt;/font&gt;&lt;font face=&quot;Comic Sans MS&quot;&gt;&lt;span style=&quot;background-color: initial;&quot;&gt;&amp;nbsp;be ?&lt;br&gt;&lt;/span&gt;&lt;br&gt;&lt;/font&gt;must&lt;font style=&quot;border-color: var(--border-color);&quot; color=&quot;#ff0000&quot;&gt;n&#39;t&lt;/font&gt;&amp;nbsp;&lt;font face=&quot;Comic Sans MS&quot;&gt;You &lt;/font&gt;&lt;font face=&quot;Comic Sans MS&quot;&gt;&lt;span style=&quot;background-color: initial;&quot;&gt;be ?&lt;br&gt;&lt;/span&gt;&lt;br&gt;&lt;/font&gt;must&lt;font style=&quot;border-color: var(--border-color);&quot; color=&quot;#ff0000&quot;&gt;n&#39;t&lt;/font&gt;&amp;nbsp;&lt;font face=&quot;Comic Sans MS&quot;&gt;They &lt;/font&gt;&lt;font face=&quot;Comic Sans MS&quot;&gt;&lt;span style=&quot;background-color: initial;&quot;&gt;be ?&lt;/span&gt;&lt;/font&gt;" style="text;strokeColor=none;fillColor=none;html=1;verticalAlign=middle;overflow=hidden;spacingTop=0;whiteSpace=wrap;horizontal=1;spacing=0;fontSize=16;fontFamily=Comic Sans MS;spacingLeft=20;fontColor=#66B2FF;" parent="dH2ktReE65H0-K7HurxZ-4" vertex="1">
          <mxGeometry x="1000" y="501.53999999999996" width="230" height="240" as="geometry" />
        </mxCell>
        <mxCell id="dCN5y319V1dZhfIS2Bhl-12" value="do&lt;font style=&quot;border-color: var(--border-color);&quot; color=&quot;#ff0000&quot;&gt;n&#39;t&lt;/font&gt;&amp;nbsp;&lt;font face=&quot;Comic Sans MS&quot;&gt;&lt;span style=&quot;background-color: initial;&quot;&gt;I have to be ?&lt;br&gt;&lt;/span&gt;&lt;br&gt;&lt;/font&gt;do&lt;font style=&quot;border-color: var(--border-color);&quot; color=&quot;#ff0000&quot;&gt;n&#39;t&lt;/font&gt;&amp;nbsp;&lt;font face=&quot;Comic Sans MS&quot;&gt;You&amp;nbsp;have to&lt;/font&gt;&lt;font face=&quot;Comic Sans MS&quot;&gt;&lt;span style=&quot;background-color: initial;&quot;&gt;&amp;nbsp;be ?&lt;br&gt;&lt;/span&gt;&lt;br&gt;&lt;/font&gt;does&lt;font style=&quot;border-color: var(--border-color);&quot; color=&quot;#ff0000&quot;&gt;n&#39;t&lt;/font&gt;&amp;nbsp;&lt;font face=&quot;Comic Sans MS&quot;&gt;He/She/It&amp;nbsp;have to&lt;/font&gt;&lt;font face=&quot;Comic Sans MS&quot;&gt;&lt;span style=&quot;background-color: initial;&quot;&gt;&amp;nbsp;be ?&lt;/span&gt;&lt;br&gt;&lt;br&gt;&lt;/font&gt;do&lt;font style=&quot;border-color: var(--border-color);&quot; color=&quot;#ff0000&quot;&gt;n&#39;t&lt;/font&gt;&amp;nbsp;&lt;font face=&quot;Comic Sans MS&quot;&gt;We&amp;nbsp;have&lt;/font&gt;&lt;font face=&quot;Comic Sans MS&quot;&gt;&lt;span style=&quot;background-color: initial;&quot;&gt;&amp;nbsp;to be ?&lt;br&gt;&lt;/span&gt;&lt;br&gt;&lt;/font&gt;do&lt;font style=&quot;border-color: var(--border-color);&quot; color=&quot;#ff0000&quot;&gt;n&#39;t&lt;/font&gt;&amp;nbsp;&lt;font face=&quot;Comic Sans MS&quot;&gt;You&amp;nbsp;have to&lt;/font&gt;&lt;font face=&quot;Comic Sans MS&quot;&gt;&lt;span style=&quot;background-color: initial;&quot;&gt;&amp;nbsp;be ?&lt;br&gt;&lt;/span&gt;&lt;br&gt;&lt;/font&gt;do&lt;font style=&quot;border-color: var(--border-color);&quot; color=&quot;#ff0000&quot;&gt;n&#39;t&lt;/font&gt;&amp;nbsp;&lt;font face=&quot;Comic Sans MS&quot;&gt;They&amp;nbsp;have to&lt;/font&gt;&lt;font face=&quot;Comic Sans MS&quot;&gt;&lt;span style=&quot;background-color: initial;&quot;&gt;&amp;nbsp;be ?&lt;/span&gt;&lt;/font&gt;" style="text;strokeColor=none;fillColor=none;html=1;verticalAlign=middle;overflow=hidden;spacingTop=0;whiteSpace=wrap;horizontal=1;spacing=0;fontSize=16;fontFamily=Comic Sans MS;spacingLeft=20;fontColor=#66B2FF;" parent="dH2ktReE65H0-K7HurxZ-4" vertex="1">
          <mxGeometry x="1230" y="508.07000000000005" width="265" height="223.85" as="geometry" />
        </mxCell>
        <mxCell id="dH2ktReE65H0-K7HurxZ-5" value="" style="group" parent="1" vertex="1" connectable="0">
          <mxGeometry x="1190" y="170" width="452" height="390" as="geometry" />
        </mxCell>
        <mxCell id="wq_cmzW5N2Y1-mYz72yh-10" value="" style="rounded=1;whiteSpace=wrap;html=1;fillColor=#f5f5f5;fontColor=#333333;strokeColor=#666666;glass=0;shadow=0;arcSize=5;fontFamily=Comic Sans MS;" parent="dH2ktReE65H0-K7HurxZ-5" vertex="1">
          <mxGeometry y="60" width="452" height="330" as="geometry" />
        </mxCell>
        <mxCell id="wq_cmzW5N2Y1-mYz72yh-11" value="Futuro will" style="text;strokeColor=none;fillColor=none;html=1;fontSize=24;fontStyle=1;verticalAlign=middle;align=center;fontFamily=Comic Sans MS;" parent="dH2ktReE65H0-K7HurxZ-5" vertex="1">
          <mxGeometry x="90" width="230" height="60" as="geometry" />
        </mxCell>
        <mxCell id="wq_cmzW5N2Y1-mYz72yh-12" value="&lt;font face=&quot;Comic Sans MS&quot;&gt;&lt;span style=&quot;background-color: initial;&quot;&gt;will I&amp;nbsp;&lt;font color=&quot;#ff0000&quot;&gt;not&lt;/font&gt; be ?&lt;br&gt;&lt;/span&gt;&lt;br&gt;&lt;span style=&quot;background-color: initial;&quot;&gt;will You&amp;nbsp;&lt;font color=&quot;#ff0000&quot;&gt;not&lt;/font&gt; be ?&lt;br&gt;&lt;/span&gt;&lt;br&gt;&lt;span style=&quot;background-color: initial;&quot;&gt;will He/She/It&amp;nbsp;&lt;font color=&quot;#ff0000&quot;&gt;not&lt;/font&gt; be ?&lt;/span&gt;&lt;br&gt;&lt;span style=&quot;background-color: initial;&quot;&gt;&lt;br&gt;will We&amp;nbsp;&lt;font color=&quot;#ff0000&quot;&gt;not&lt;/font&gt; be ?&lt;br&gt;&lt;/span&gt;&lt;br&gt;&lt;span style=&quot;background-color: initial;&quot;&gt;will You&amp;nbsp;&lt;font color=&quot;#ff0000&quot;&gt;not&lt;/font&gt; be ?&lt;br&gt;&lt;/span&gt;&lt;br&gt;&lt;span style=&quot;background-color: initial;&quot;&gt;will They&amp;nbsp;&lt;font color=&quot;#ff0000&quot;&gt;not&lt;/font&gt; be ?&lt;/span&gt;&lt;/font&gt;" style="text;strokeColor=none;fillColor=none;html=1;verticalAlign=middle;overflow=hidden;spacingTop=0;whiteSpace=wrap;horizontal=1;spacing=0;fontSize=16;fontFamily=Comic Sans MS;spacingLeft=20;fontColor=#66B2FF;" parent="dH2ktReE65H0-K7HurxZ-5" vertex="1">
          <mxGeometry y="150" width="200" height="240" as="geometry" />
        </mxCell>
        <mxCell id="wq_cmzW5N2Y1-mYz72yh-13" value="Yo serÃ©, Tu serÃ¡s, Ella serÃ¡&lt;br&gt;&lt;br&gt;Yo estarÃ©, Tu estarÃ¡s, Ella estarÃ¡" style="text;html=1;strokeColor=none;fillColor=none;align=center;verticalAlign=middle;whiteSpace=wrap;rounded=0;fontFamily=Comic Sans MS;" parent="dH2ktReE65H0-K7HurxZ-5" vertex="1">
          <mxGeometry x="90" y="70" width="230" height="60" as="geometry" />
        </mxCell>
        <mxCell id="dCN5y319V1dZhfIS2Bhl-13" value="wo&lt;font style=&quot;border-color: var(--border-color);&quot; color=&quot;#ff0000&quot;&gt;n&#39;t&amp;nbsp;&lt;/font&gt;&lt;font face=&quot;Comic Sans MS&quot;&gt;&lt;span style=&quot;background-color: initial;&quot;&gt;I&amp;nbsp;be ?&lt;br&gt;&lt;/span&gt;&lt;br&gt;&lt;/font&gt;wo&lt;font style=&quot;border-color: var(--border-color);&quot; color=&quot;#ff0000&quot;&gt;n&#39;t&amp;nbsp;&lt;/font&gt;&lt;font face=&quot;Comic Sans MS&quot;&gt;&lt;span style=&quot;background-color: initial;&quot;&gt;You&amp;nbsp;be ?&lt;br&gt;&lt;/span&gt;&lt;br&gt;&lt;/font&gt;wo&lt;font style=&quot;border-color: var(--border-color);&quot; color=&quot;#ff0000&quot;&gt;n&#39;t&amp;nbsp;&lt;/font&gt;&lt;font face=&quot;Comic Sans MS&quot;&gt;&lt;span style=&quot;background-color: initial;&quot;&gt;He/She/It&amp;nbsp;be ?&lt;/span&gt;&lt;br&gt;&lt;br&gt;&lt;/font&gt;wo&lt;font style=&quot;border-color: var(--border-color);&quot; color=&quot;#ff0000&quot;&gt;n&#39;t&amp;nbsp;&lt;/font&gt;&lt;font face=&quot;Comic Sans MS&quot;&gt;&lt;span style=&quot;background-color: initial;&quot;&gt;We&amp;nbsp;be ?&lt;br&gt;&lt;/span&gt;&lt;br&gt;&lt;/font&gt;wo&lt;font style=&quot;border-color: var(--border-color);&quot; color=&quot;#ff0000&quot;&gt;n&#39;t&amp;nbsp;&lt;/font&gt;&lt;font face=&quot;Comic Sans MS&quot;&gt;&lt;span style=&quot;background-color: initial;&quot;&gt;You&amp;nbsp;be ?&lt;br&gt;&lt;/span&gt;&lt;br&gt;&lt;/font&gt;wo&lt;font style=&quot;border-color: var(--border-color);&quot; color=&quot;#ff0000&quot;&gt;n&#39;t&amp;nbsp;&lt;/font&gt;&lt;font face=&quot;Comic Sans MS&quot;&gt;&lt;span style=&quot;background-color: initial;&quot;&gt;They&amp;nbsp;be ?&lt;/span&gt;&lt;/font&gt;" style="text;strokeColor=none;fillColor=none;html=1;verticalAlign=middle;overflow=hidden;spacingTop=0;whiteSpace=wrap;horizontal=1;spacing=0;fontSize=16;fontFamily=Comic Sans MS;spacingLeft=20;fontColor=#66B2FF;" parent="dH2ktReE65H0-K7HurxZ-5" vertex="1">
          <mxGeometry x="235" y="150" width="200" height="240" as="geometry" />
        </mxCell>
        <mxCell id="dH2ktReE65H0-K7HurxZ-6" value="" style="group" parent="1" vertex="1" connectable="0">
          <mxGeometry x="1090" y="730" width="510" height="390" as="geometry" />
        </mxCell>
        <mxCell id="wq_cmzW5N2Y1-mYz72yh-15" value="" style="rounded=1;whiteSpace=wrap;html=1;fillColor=#f5f5f5;fontColor=#333333;strokeColor=#666666;glass=0;shadow=0;arcSize=5;fontFamily=Comic Sans MS;" parent="dH2ktReE65H0-K7HurxZ-6" vertex="1">
          <mxGeometry y="60" width="510" height="330" as="geometry" />
        </mxCell>
        <mxCell id="wq_cmzW5N2Y1-mYz72yh-16" value="Futuro going to" style="text;strokeColor=none;fillColor=none;html=1;fontSize=24;fontStyle=1;verticalAlign=middle;align=center;fontFamily=Comic Sans MS;" parent="dH2ktReE65H0-K7HurxZ-6" vertex="1">
          <mxGeometry width="230" height="60" as="geometry" />
        </mxCell>
        <mxCell id="wq_cmzW5N2Y1-mYz72yh-17" value="&lt;span style=&quot;background-color: initial;&quot;&gt;am I&amp;nbsp;&lt;font color=&quot;#ff0000&quot;&gt;not&lt;/font&gt; going to be ?&lt;br&gt;&lt;/span&gt;&lt;br&gt;are You&amp;nbsp;&lt;font color=&quot;#ff0000&quot;&gt;not&lt;/font&gt; going to be ?&lt;span style=&quot;background-color: initial;&quot;&gt;&lt;br&gt;&lt;/span&gt;&lt;br&gt;&lt;span style=&quot;background-color: initial;&quot;&gt;is He/She/It&amp;nbsp;&lt;font color=&quot;#ff0000&quot;&gt;not&lt;/font&gt;&amp;nbsp;&lt;/span&gt;going to be ?&lt;br&gt;&lt;br&gt;are We&amp;nbsp;&lt;font color=&quot;#ff0000&quot;&gt;not&lt;/font&gt; going to be ?&lt;span style=&quot;background-color: initial;&quot;&gt;&lt;br&gt;&lt;/span&gt;&lt;br&gt;are You&amp;nbsp;&lt;font color=&quot;#ff0000&quot;&gt;not&lt;/font&gt; going to be ?&lt;span style=&quot;background-color: initial;&quot;&gt;&lt;br&gt;&lt;/span&gt;&lt;br&gt;&lt;span style=&quot;background-color: initial;&quot;&gt;are They&amp;nbsp;&lt;font color=&quot;#ff0000&quot;&gt;not&lt;/font&gt;&amp;nbsp;&lt;/span&gt;going to be ?" style="text;strokeColor=none;fillColor=none;html=1;verticalAlign=middle;overflow=hidden;spacingTop=0;whiteSpace=wrap;horizontal=1;spacing=0;fontSize=16;fontFamily=Comic Sans MS;spacingLeft=20;fontColor=#66B2FF;" parent="dH2ktReE65H0-K7HurxZ-6" vertex="1">
          <mxGeometry y="130" width="260" height="260" as="geometry" />
        </mxCell>
        <mxCell id="wq_cmzW5N2Y1-mYz72yh-18" value="Yo no voy a ser, Tu no vas a ser, Ella no va a ser" style="text;html=1;strokeColor=none;fillColor=none;align=center;verticalAlign=middle;whiteSpace=wrap;rounded=0;fontFamily=Comic Sans MS;" parent="dH2ktReE65H0-K7HurxZ-6" vertex="1">
          <mxGeometry y="60" width="300" height="60" as="geometry" />
        </mxCell>
        <mxCell id="wq_cmzW5N2Y1-mYz72yh-19" value="&lt;span style=&quot;background-color: initial;&quot;&gt;am I&amp;nbsp;&lt;font color=&quot;#ff0000&quot;&gt;not&lt;/font&gt; gonna be ?&lt;br&gt;&lt;/span&gt;&lt;br&gt;are&lt;font style=&quot;border-color: var(--border-color);&quot; color=&quot;#ff0000&quot;&gt;n&#39;t&amp;nbsp;&lt;/font&gt;You&amp;nbsp;gonna be ?&lt;span style=&quot;background-color: initial;&quot;&gt;&lt;br&gt;&lt;/span&gt;&lt;br&gt;is&lt;font style=&quot;border-color: var(--border-color);&quot; color=&quot;#ff0000&quot;&gt;n&#39;t&amp;nbsp;&lt;/font&gt;&lt;span style=&quot;background-color: initial;&quot;&gt;He/She/It&amp;nbsp;&lt;/span&gt;gonna be ?&lt;br&gt;&lt;br&gt;are&lt;font style=&quot;border-color: var(--border-color);&quot; color=&quot;#ff0000&quot;&gt;n&#39;t&amp;nbsp;&lt;/font&gt;We&amp;nbsp;gonna be ?&lt;span style=&quot;background-color: initial;&quot;&gt;&lt;br&gt;&lt;/span&gt;&lt;br&gt;are&lt;font style=&quot;border-color: var(--border-color);&quot; color=&quot;#ff0000&quot;&gt;n&#39;t&amp;nbsp;&lt;/font&gt;You&amp;nbsp;gonna be ?&lt;span style=&quot;background-color: initial;&quot;&gt;&lt;br&gt;&lt;/span&gt;&lt;br&gt;are&lt;font style=&quot;border-color: var(--border-color);&quot; color=&quot;#ff0000&quot;&gt;n&#39;t&amp;nbsp;&lt;/font&gt;&lt;span style=&quot;background-color: initial;&quot;&gt;They&amp;nbsp;&lt;/span&gt;gonna be ?" style="text;strokeColor=none;fillColor=none;html=1;verticalAlign=middle;overflow=hidden;spacingTop=0;whiteSpace=wrap;horizontal=1;spacing=0;fontSize=16;fontFamily=Comic Sans MS;spacingLeft=20;fontColor=#66B2FF;" parent="dH2ktReE65H0-K7HurxZ-6" vertex="1">
          <mxGeometry x="270" y="130" width="240" height="260" as="geometry" />
        </mxCell>
        <mxCell id="wq_cmzW5N2Y1-mYz72yh-20" value="going to = gonna" style="text;html=1;strokeColor=none;fillColor=none;align=center;verticalAlign=middle;whiteSpace=wrap;rounded=0;fontFamily=Comic Sans MS;fontColor=#009900;" parent="dH2ktReE65H0-K7HurxZ-6" vertex="1">
          <mxGeometry x="335" y="75" width="115" height="30" as="geometry" />
        </mxCell>
        <mxCell id="dH2ktReE65H0-K7HurxZ-7" value="" style="group" parent="1" vertex="1" connectable="0">
          <mxGeometry x="340" y="1210" width="470" height="390" as="geometry" />
        </mxCell>
        <mxCell id="wq_cmzW5N2Y1-mYz72yh-31" value="Algo que ocurrio en el pasado, continua en el presente, y seguira en el futuro" style="text;html=1;strokeColor=none;fillColor=none;align=center;verticalAlign=middle;whiteSpace=wrap;rounded=0;" parent="dH2ktReE65H0-K7HurxZ-7" vertex="1">
          <mxGeometry x="240" y="20" width="230" height="30" as="geometry" />
        </mxCell>
        <mxCell id="wq_cmzW5N2Y1-mYz72yh-27" value="" style="rounded=1;whiteSpace=wrap;html=1;fillColor=#f5f5f5;fontColor=#333333;strokeColor=#666666;glass=0;shadow=0;arcSize=5;fontFamily=Comic Sans MS;" parent="dH2ktReE65H0-K7HurxZ-7" vertex="1">
          <mxGeometry y="60" width="460" height="330" as="geometry" />
        </mxCell>
        <mxCell id="wq_cmzW5N2Y1-mYz72yh-28" value="Presente perfecto" style="text;strokeColor=none;fillColor=none;html=1;fontSize=24;fontStyle=1;verticalAlign=middle;align=center;fontFamily=Comic Sans MS;" parent="dH2ktReE65H0-K7HurxZ-7" vertex="1">
          <mxGeometry width="230" height="60" as="geometry" />
        </mxCell>
        <mxCell id="wq_cmzW5N2Y1-mYz72yh-29" value="&lt;span style=&quot;background-color: initial;&quot;&gt;I have&amp;nbsp;&lt;font color=&quot;#ff0000&quot;&gt;not&lt;/font&gt;&amp;nbsp;been&lt;br&gt;&lt;/span&gt;&lt;br&gt;&lt;span style=&quot;background-color: initial;&quot;&gt;You have&amp;nbsp;&lt;font color=&quot;#ff0000&quot;&gt;not&lt;/font&gt;&amp;nbsp;been&lt;br&gt;&lt;/span&gt;&lt;br&gt;&lt;span style=&quot;background-color: initial;&quot;&gt;He/She/It has&amp;nbsp;&lt;font color=&quot;#ff0000&quot;&gt;not&lt;/font&gt;&amp;nbsp;been&lt;/span&gt;&lt;br&gt;&lt;span style=&quot;background-color: initial;&quot;&gt;&lt;br&gt;We have&amp;nbsp;&lt;font color=&quot;#ff0000&quot;&gt;not&lt;/font&gt;&amp;nbsp;been&lt;br&gt;&lt;/span&gt;&lt;br&gt;&lt;span style=&quot;background-color: initial;&quot;&gt;You have&amp;nbsp;&lt;font color=&quot;#ff0000&quot;&gt;not&lt;/font&gt;&amp;nbsp;been&lt;br&gt;&lt;/span&gt;&lt;br&gt;&lt;span style=&quot;background-color: initial;&quot;&gt;They have&amp;nbsp;&lt;font color=&quot;#ff0000&quot;&gt;not&lt;/font&gt;&amp;nbsp;been&lt;/span&gt;" style="text;strokeColor=none;fillColor=none;html=1;verticalAlign=middle;overflow=hidden;spacingTop=0;whiteSpace=wrap;horizontal=1;spacing=0;fontSize=16;fontFamily=Comic Sans MS;spacingLeft=20;fontColor=#66B2FF;" parent="dH2ktReE65H0-K7HurxZ-7" vertex="1">
          <mxGeometry y="150" width="260" height="240" as="geometry" />
        </mxCell>
        <mxCell id="wq_cmzW5N2Y1-mYz72yh-30" value="Yo no he sido, Tu no has sido, Ella no ha sido&lt;br&gt;&lt;br&gt;Yo no he estado, Tu no has estado, Ella no ha estado" style="text;html=1;strokeColor=none;fillColor=none;align=center;verticalAlign=middle;whiteSpace=wrap;rounded=0;fontFamily=Comic Sans MS;spacingTop=0;" parent="dH2ktReE65H0-K7HurxZ-7" vertex="1">
          <mxGeometry x="40" y="60" width="380" height="60" as="geometry" />
        </mxCell>
        <mxCell id="dH2ktReE65H0-K7HurxZ-1" value="&lt;span style=&quot;background-color: initial;&quot;&gt;I have&lt;font color=&quot;#ff0000&quot;&gt;n&#39;t&lt;/font&gt;&amp;nbsp;been&lt;br&gt;&lt;/span&gt;&lt;br&gt;&lt;span style=&quot;background-color: initial;&quot;&gt;You have&lt;font color=&quot;#ff0000&quot;&gt;n&#39;t&lt;/font&gt;&amp;nbsp;been&lt;br&gt;&lt;/span&gt;&lt;br&gt;&lt;span style=&quot;background-color: initial;&quot;&gt;He/She/It has&lt;font color=&quot;#ff0000&quot;&gt;n&#39;t&lt;/font&gt;&amp;nbsp;been&lt;/span&gt;&lt;br&gt;&lt;span style=&quot;background-color: initial;&quot;&gt;&lt;br&gt;We have&lt;font color=&quot;#ff0000&quot;&gt;n&#39;t&lt;/font&gt;&amp;nbsp;been&lt;br&gt;&lt;/span&gt;&lt;br&gt;&lt;span style=&quot;background-color: initial;&quot;&gt;You have&lt;font color=&quot;#ff0000&quot;&gt;n&#39;t&lt;/font&gt;&amp;nbsp;been&lt;br&gt;&lt;/span&gt;&lt;br&gt;&lt;span style=&quot;background-color: initial;&quot;&gt;They have&lt;font color=&quot;#ff0000&quot;&gt;n&#39;t&lt;/font&gt;&amp;nbsp;been&lt;/span&gt;" style="text;strokeColor=none;fillColor=none;html=1;verticalAlign=middle;overflow=hidden;spacingTop=0;whiteSpace=wrap;horizontal=1;spacing=0;fontSize=16;fontFamily=Comic Sans MS;spacingLeft=20;fontColor=#66B2FF;" parent="dH2ktReE65H0-K7HurxZ-7" vertex="1">
          <mxGeometry x="240" y="150" width="220" height="240" as="geometry" />
        </mxCell>
      </root>
    </mxGraphModel>
  </diagram>
</mxfile>
